# xmcd
#
# Track frame offsets:
#	150
#	17537
#	32835
#	49770
#	66830
#	81790
#	93842
#	111255
#	125125
#	140307
#
# Disc length: 2219 seconds
#
# Revision: 0
# Processed by: cddbd v1.4PL0 Copyright (c) Steve Scherf et al.
# Submitted via: dBpowerAMP V4.0
#
DISCID=8108a90a
DTITLE=Oak Ridge Boys - American Made
DYEAR=1900
DGENRE=Country
TTITLE0=Love Song
TTITLE1=She's Not Just Another Pretty Face 
TTITLE2=Amity
TTITLE3=You're The One
TTITLE4=Down The Hall
TTITLE5=American Made
TTITLE6=Any Old Time You Choose
TTITLE7=Heart On The Line (Operator,Operator)
TTITLE8=You Made It Beautiful
TTITLE9=I'm So Glad I'm Standing Here Today
EXTD=
EXTT0=
EXTT1=
EXTT2=
EXTT3=
EXTT4=
EXTT5=
EXTT6=
EXTT7=
EXTT8=
EXTT9=
PLAYORDER=
